HIERARCHY
ROOT Hips
{
	OFFSET 0.00000 0.00000 0.00000
	CHANNELS 6 Xposition Yposition Zposition Zrotation Yrotation Xrotation 
	JOINT LHipJoint
	{
		OFFSET 0 0 0
		CHANNELS 3 Zrotation Yrotation Xrotation
		JOINT LeftUpLeg
		{
			OFFSET 1.36306 -1.79463 0.83929
			CHANNELS 3 Zrotation Yrotation Xrotation
			JOINT LeftLeg
			{
				OFFSET 2.44811 -6.72613 0.00000
				CHANNELS 3 Zrotation Yrotation Xrotation
				JOINT LeftFoot
				{
					OFFSET 2.56220 -7.03959 0.00000
					CHANNELS 3 Zrotation Yrotation Xrotation
					JOINT LeftToeBase
					{
						OFFSET 0.15764 -0.43311 2.32255
						CHANNELS 3 Zrotation Yrotation Xrotation
						End Site
						{
							OFFSET 0.00000 -0.00000 1.18966
						}
					}
				}
			}
		}
	}
	JOINT RHipJoint
	{
		OFFSET 0 0 0
		CHANNELS 3 Zrotation Yrotation Xrotation
		JOINT RightUpLeg
		{
			OFFSET -1.30552 -1.79463 0.83929
			CHANNELS 3 Zrotation Yrotation Xrotation
			JOINT RightLeg
			{
				OFFSET -2.54253 -6.98555 0.00000
				CHANNELS 3 Zrotation Yrotation Xrotation
				JOINT RightFoot
				{
					OFFSET -2.56826 -7.05623 0.00000
					CHANNELS 3 Zrotation Yrotation Xrotation
					JOINT RightToeBase
					{
						OFFSET -0.16473 -0.45259 2.36315
						CHANNELS 3 Zrotation Yrotation Xrotation
						End Site
						{
							OFFSET -0.00000 -0.00000 1.21082
						}
					}
				}
			}
		}
	}
	JOINT LowerBack
	{
		OFFSET 0 0 0
		CHANNELS 3 Zrotation Yrotation Xrotation
		JOINT Spine
		{
			OFFSET 0.02827 2.03559 -0.19338
			CHANNELS 3 Zrotation Yrotation Xrotation
			JOINT Spine1
			{
				OFFSET 0.05672 2.04885 -0.04275
				CHANNELS 3 Zrotation Yrotation Xrotation
				JOINT Neck
				{
					OFFSET 0 0 0
					CHANNELS 3 Zrotation Yrotation Xrotation
					JOINT Neck1
					{
						OFFSET -0.05417 1.74624 0.17202
						CHANNELS 3 Zrotation Yrotation Xrotation
						JOINT Head
						{
							OFFSET 0.10407 1.76136 -0.12397
							CHANNELS 3 Zrotation Yrotation Xrotation
							End Site
							{
								OFFSET 0.03720 1.77044 -0.06241
							}
						}
					}
				}
				JOINT LeftShoulder
				{
					OFFSET 0 0 0
					CHANNELS 3 Zrotation Yrotation Xrotation
					JOINT LeftArm
					{
						OFFSET 3.36241 1.20089 -0.31121
						CHANNELS 3 Zrotation Yrotation Xrotation
						JOINT LeftForeArm
						{
							OFFSET 4.98300 -0.00000 -0.00000
							CHANNELS 3 Zrotation Yrotation Xrotation
							JOINT LeftHand
							{
								OFFSET 3.48356 -0.00000 -0.00000
								CHANNELS 3 Zrotation Yrotation Xrotation
								JOINT LeftFingerBase
								{
									OFFSET 0 0 0
									CHANNELS 3 Zrotation Yrotation Xrotation
									JOINT LeftHandIndex1
									{
										OFFSET 0.71526 -0.00000 -0.00000
										CHANNELS 3 Zrotation Yrotation Xrotation
										End Site
										{
											OFFSET 0.57666 -0.00000 -0.00000
										}
									}
								}
								JOINT LThumb
								{
									OFFSET 0 0 0
									CHANNELS 3 Zrotation Yrotation Xrotation
									End Site
									{
										OFFSET 0.58547 -0.00000 0.58547
									}
								}
							}
						}
					}
				}
				JOINT RightShoulder
				{
					OFFSET 0 0 0
					CHANNELS 3 Zrotation Yrotation Xrotation
					JOINT RightArm
					{
						OFFSET -3.13660 1.37405 -0.40465
						CHANNELS 3 Zrotation Yrotation Xrotation
						JOINT RightForeArm
						{
							OFFSET -5.24190 -0.00000 -0.00000
							CHANNELS 3 Zrotation Yrotation Xrotation
							JOINT RightHand
							{
								OFFSET -3.44417 -0.00000 -0.00000
								CHANNELS 3 Zrotation Yrotation Xrotation
								JOINT RightFingerBase
								{
									OFFSET 0 0 0
									CHANNELS 3 Zrotation Yrotation Xrotation
									JOINT RightHandIndex1
									{
										OFFSET -0.62253 -0.00000 -0.00000
										CHANNELS 3 Zrotation Yrotation Xrotation
										End Site
										{
											OFFSET -0.50190 -0.00000 -0.00000
										}
									}
								}
								JOINT RThumb
								{
									OFFSET 0 0 0
									CHANNELS 3 Zrotation Yrotation Xrotation
									End Site
									{
										OFFSET -0.50956 -0.00000 0.50956
									}
								}
							}
						}
					}
				}
			}
		}
	}
}
MOTION
Frames: 10
Frame Time: .0083333
23.1604 18.1365 14.5682 0 0 0 0 0 0 -21 0 0 0 0 0 0 0 0 0 0 0 0 0 0 21 0 0 0 0 0 0 0 0 0 0 0 0 0 0 0 0 0 0 0 0 0 0 -16 0 0 21 0 0 11 0 0 0 -8 0 0 0 0 0 0 0 0 0 0 0 0 0 0 0 0 0 0 0 0 8 0 0 0 0 0 0 0 0 0 0 0 0 0 0 0 0 0
23.1604 18.1365 14.5682 -0.3641 -22.9187 3.9127 0.0000 0.0000 0.0000 -8.8087 -6.9963 -23.9933 1.3021 7.2291 20.3959 0.3616 3.5223 -13.2087 0.0520 1.4709 4.0455 0.0000 0.0000 0.0000 22.2307 -4.7479 2.3361 -0.8054 -5.7277 15.9963 0.4607 -16.8292 -18.8709 -4.3019 -12.5517 37.7126 1.1558 1.4180 11.4894 2.0773 2.0652 2.9442 1.2172 1.0056 -3.3975 -2.0325 0.9156 -8.8994 -7.3211 2.8037 16.7239 -1.7783 0.6064 6.6554 -0.0000 -0.0000 0.0000 -87.9388 -1.7787 10.9344 10.3743 -17.3229 -1.5846 -0.0000 -0.0000 4.8876 21.4829 -4.9579 -1.9481 -7.1250 0.0000 -0.0000 -3.8800 24.6541 1.9120 -0.0000 -0.0000 0.0000 79.3278 8.1098 9.4580 -10.7209 17.8591 -1.6893 0.0000 -0.0000 -7.3234 -22.4526 -22.1677 8.8625 7.1250 -0.0000 -0.0000 6.7459 -53.6448 -1.4390
23.1821 18.1246 14.6284 -0.4892 -22.5875 4.1618 0.0000 0.0000 0.0000 -8.5198 -7.1850 -23.9739 1.2371 7.0530 19.8725 0.3349 4.5383 -13.5546 0.0644 1.6376 4.5051 0.0000 0.0000 0.0000 22.2445 -4.8647 2.1981 -0.8258 -5.7978 16.1990 0.4404 -16.8198 -19.1158 -4.2654 -12.5054 37.5443 1.1917 1.4454 11.4425 2.0347 2.1085 2.7966 1.1457 1.0272 -3.5234 -2.2664 0.8943 -8.8922 -7.0418 2.7735 16.8655 -1.6533 0.5956 6.6923 0.0000 -0.0000 0.0000 -87.9400 -1.6242 9.4283 10.0172 -16.7665 -1.4799 -0.0000 -0.0000 5.4609 21.9351 -5.2066 -2.0929 -7.1250 0.0000 -0.0000 -3.5409 24.3702 1.7675 0.0000 -0.0000 0.0000 79.4010 7.8041 9.8451 -11.2169 18.6200 -1.8446 0.0000 -0.0000 -7.5499 -22.2295 -22.2196 8.7856 7.1250 -0.0000 -0.0000 6.9926 -53.6564 -1.4941
23.1887 18.1146 14.6994 -0.5455 -22.2311 3.9690 0.0000 0.0000 0.0000 -8.3672 -7.3822 -23.6435 1.2287 7.0299 19.8041 0.3448 5.3382 -14.3427 0.0824 1.8518 5.0964 0.0000 0.0000 0.0000 22.1211 -5.4910 2.7315 -0.7814 -5.6436 15.7537 0.4676 -16.8721 -18.8599 -4.1755 -12.3904 37.1273 1.0769 1.4520 11.5506 1.9695 2.1034 2.8201 1.1408 1.0253 -3.5599 -2.2259 0.9287 -9.0107 -7.0035 2.8338 17.1376 -1.6443 0.6184 6.8020 0.0000 0.0000 0.0000 -87.9310 -1.3169 7.9200 9.8492 -16.5033 -1.4318 -0.0000 -0.0000 6.2322 22.2994 -4.5543 -1.8652 -7.1250 0.0000 -0.0000 -3.2705 25.0588 1.5799 0.0000 0.0000 0.0000 79.3954 8.0444 10.1407 -11.0893 18.4250 -1.8040 0.0000 -0.0000 -7.3451 -21.9024 -21.7404 8.4702 7.1250 -0.0000 -0.0000 7.1605 -53.0965 -1.4321
23.1917 18.0987 14.7854 -0.7617 -21.8154 3.6329 0.0000 0.0000 0.0000 -8.1415 -7.4231 -23.0842 1.2154 6.9932 19.6952 0.3719 5.8858 -15.1796 0.1631 2.6018 7.1721 0.0000 0.0000 0.0000 22.2307 -5.7705 3.5628 -0.7519 -5.5386 15.4513 0.5183 -17.2785 -18.9664 -4.0984 -12.2902 36.7665 1.2043 1.4671 11.5809 1.8952 2.1313 2.9749 0.9892 1.0384 -3.4079 -1.7757 1.0290 -8.9221 -7.3529 2.9659 17.2377 -1.8216 0.6803 6.8319 -0.0000 0.0000 0.0000 -87.7194 -1.0628 7.1346 9.6987 -16.2670 -1.3894 -0.0000 -0.0000 6.6984 22.1712 -3.5682 -1.4528 -7.1250 0.0000 -0.0000 -3.3753 26.1252 1.5467 -0.0000 0.0000 0.0000 79.6282 7.9976 10.2134 -11.3101 18.7620 -1.8744 0.0000 -0.0000 -7.0482 -21.6736 -21.8929 8.4290 7.1250 -0.0000 -0.0000 7.4457 -53.2123 -1.5107
23.2044 18.0859 14.8768 -0.9921 -21.2965 3.3768 0.0000 0.0000 0.0000 -7.9781 -7.3303 -22.7192 1.2153 6.9929 19.6944 0.3780 6.3462 -15.6591 0.2109 2.9568 8.1585 0.0000 0.0000 0.0000 22.3918 -5.8358 4.4756 -0.7139 -5.3997 15.0522 0.5579 -17.7491 -19.3584 -4.1129 -12.3091 36.8344 1.4091 1.4427 11.5294 1.8996 2.1174 3.1157 0.8840 1.0312 -3.2253 -2.1881 0.8133 -8.6602 -7.0007 2.6408 16.9507 -1.6652 0.5432 6.6745 0.0000 -0.0000 0.0000 -87.7211 -0.8916 6.0408 9.4817 -15.9247 -1.3292 -0.0000 -0.0000 7.2034 21.8486 -3.2854 -1.3163 -7.1250 0.0000 -0.0000 -3.6244 26.4375 1.6347 0.0000 -0.0000 0.0000 79.5944 8.1985 10.4426 -11.3625 18.8418 -1.8913 0.0000 -0.0000 -7.0728 -22.1453 -21.7565 8.5785 7.1250 -0.0000 -0.0000 6.9191 -53.1585 -1.3939
23.2882 18.1017 14.9004 -1.0400 -20.6625 4.6989 0.0000 0.0000 0.0000 -7.7687 -7.7917 -24.1095 1.2172 6.9982 19.7101 0.3389 7.1256 -15.8581 0.1801 2.7335 7.5377 0.0000 0.0000 0.0000 22.4928 -5.4673 3.5829 -0.6829 -5.2835 14.7190 0.6202 -18.1944 -19.4315 -4.0761 -12.2610 36.6617 1.9543 1.3171 11.1673 1.7254 2.0162 2.5916 0.4122 0.9766 -3.5465 -2.3002 0.8521 -8.3490 -7.0171 2.6719 16.5642 -1.6469 0.5705 6.4962 -0.0000 0.0000 0.0000 -87.7935 -0.8143 4.7009 9.3260 -15.6785 -1.2868 -0.0000 -0.0000 7.8889 21.2827 -3.1137 -1.2121 -7.1250 0.0000 -0.0000 -4.0585 26.6341 1.8127 -0.0000 0.0000 0.0000 79.4569 8.6422 10.7905 -11.3505 18.8235 -1.8875 0.0000 -0.0000 -7.4145 -22.2632 -21.0223 8.3546 7.1250 -0.0000 -0.0000 6.5583 -52.4140 -1.2010
23.3132 18.0908 14.9870 -1.0278 -20.1837 4.7326 0.0000 0.0000 0.0000 -7.8866 -7.7956 -24.0867 1.2106 6.9799 19.6560 0.2984 7.8329 -16.0165 0.1075 2.1139 5.8205 0.0000 0.0000 0.0000 22.3818 -5.7069 3.8227 -0.6699 -5.2340 14.5771 0.7167 -18.7171 -19.2382 -3.8716 -11.9876 35.6882 2.0015 1.2862 10.9203 1.6324 1.9684 2.6441 0.3024 0.9548 -3.3511 -1.9271 1.0682 -8.2377 -7.4691 2.9857 16.5805 -1.8287 0.7106 6.5014 -0.0000 -0.0000 0.0000 -87.7704 -0.5856 4.0778 9.2751 -15.5977 -1.2731 -0.0000 -0.0000 8.0486 20.8698 -3.0396 -1.1582 -7.1250 0.0000 -0.0000 -4.3751 26.7217 1.9458 -0.0000 -0.0000 0.0000 79.3776 8.9946 11.2938 -11.3683 18.8506 -1.8932 0.0000 -0.0000 -7.9539 -21.9049 -20.7281 8.0997 7.1250 -0.0000 -0.0000 6.8249 -52.0427 -1.1880
23.3418 18.0806 15.0695 -1.0294 -19.8843 4.7715 0.0000 0.0000 0.0000 -8.0602 -7.5623 -24.0401 1.1934 6.9318 19.5135 0.2563 8.4682 -16.1215 0.0574 1.5462 4.2531 0.0000 0.0000 0.0000 22.1831 -6.1092 3.8320 -0.6746 -5.2522 14.6292 0.7759 -18.9255 -18.8843 -3.6699 -11.7077 34.7056 1.9985 1.3320 10.8880 1.5765 2.0292 2.5503 0.2373 0.9843 -3.4284 -2.4014 0.7986 -8.2899 -7.0230 2.6238 16.7019 -1.6371 0.5376 6.5282 0.0000 0.0000 0.0000 -87.8492 -0.0542 3.7862 9.3395 -15.6999 -1.2905 -0.0000 -0.0000 7.8855 20.2536 -3.1809 -1.1729 -7.1250 0.0000 -0.0000 -4.8407 26.5835 2.1700 0.0000 0.0000 0.0000 79.2846 8.9368 11.8840 -11.5801 19.1720 -1.9622 0.0000 -0.0000 -8.3762 -21.7976 -21.0872 8.1880 7.1250 -0.0000 -0.0000 7.0482 -52.3978 -1.2886
23.3710 18.0767 15.1520 -1.0320 -19.5231 4.8091 0.0000 0.0000 0.0000 -8.4135 -6.7168 -24.2140 1.1815 6.8985 19.4151 0.2370 8.5115 -15.9083 0.0377 1.2539 3.4477 0.0000 0.0000 0.0000 22.0025 -6.2430 4.0772 -0.6701 -5.2349 14.5797 0.7231 -18.7970 -19.3206 -3.7693 -11.8470 35.1928 1.9933 1.3760 10.9314 1.5050 2.0893 2.4459 0.1552 1.0129 -3.5581 -2.4029 0.6875 -8.2869 -7.0036 2.4725 16.7364 -1.6430 0.4656 6.5343 -0.0000 -0.0000 0.0000 -87.8539 0.3699 3.4916 9.3585 -15.7299 -1.2956 -0.0000 -0.0000 7.6844 19.5563 -3.1383 -1.1141 -7.1250 0.0000 -0.0000 -5.3728 26.6416 2.4030 -0.0000 -0.0000 0.0000 79.2247 8.8429 12.1972 -11.8908 19.6406 -2.0654 0.0000 -0.0000 -8.2693 -21.2668 -21.8874 8.2556 7.1250 -0.0000 -0.0000 7.8566 -53.1310 -1.5792
